<?xml version="1.0" encoding="UTF-8" standalone="no"?>
<svg width="130px" height="84px" viewBox="0 0 130 84" version="1.1" xmlns="http://www.w3.org/2000/svg" xmlns:xlink="http://www.w3.org/1999/xlink">
    <!-- Generator: Sketch 3.6.1 (26313) - http://www.bohemiancoding.com/sketch -->
    <title>full-logo</title>
    <desc>Created with Sketch.</desc>
    <defs></defs>
    <g id="Page-1" stroke="none" stroke-width="1" fill="none" fill-rule="evenodd">
        <g id="full-logo">
            <path d="M0.76166701,78.2533333 L1.89500034,78.2533333 L3.53500034,81.4966667 L5.15500034,78.2533333 L6.26500034,78.2533333 L6.26500034,83 L5.10166701,83 L5.10166701,79.9066667 L3.55166701,83 L3.10166701,83 L1.49833368,79.87 L1.49833368,83 L0.76166701,83 L0.76166701,78.2533333 Z M15.481667,78.15 L17.7050003,83 L16.5150003,83 L15.921667,81.7033333 L14.0783336,81.7033333 L13.4550003,83 L12.661667,83 L14.9783336,78.15 L15.481667,78.15 Z M14.2950003,81.26 L15.7250003,81.26 L15.021667,79.7266667 L14.2950003,81.26 Z M24.1016669,78.2533333 L25.2716669,78.2533333 L25.2716669,80.0366667 L27.3750002,78.2533333 L28.2783336,78.2533333 L25.9050002,80.26 L28.9150002,83 L27.5050002,83 L25.2716669,80.9666667 L25.2716669,83 L24.1016669,83 L24.1016669,78.2533333 Z M38.6083335,78.2533333 L38.6083335,78.6566667 L36.2283335,78.6566667 L36.2283335,80.2233333 L38.2050002,80.2233333 L38.2050002,80.63 L36.2283335,80.63 L36.2283335,82.5133333 L38.6083335,82.5133333 L38.6083335,83 L35.0650002,83 L35.0650002,78.2533333 L38.6083335,78.2533333 Z M45.3850001,78.2533333 L46.5516668,78.2533333 L46.5516668,81.3033333 C46.5516668,81.4877787 46.5799998,81.6605547 46.6366668,81.8216667 C46.6933337,81.9827786 46.774444,82.1233327 46.8800001,82.2433333 C46.9855562,82.3633339 47.1138882,82.458333 47.2650001,82.5283333 C47.416112,82.5983337 47.5849992,82.6333333 47.7716668,82.6333333 C47.9583344,82.6333333 48.126666,82.5983337 48.2766668,82.5283333 C48.4266675,82.458333 48.554444,82.3633339 48.6600001,82.2433333 C48.7655562,82.1233327 48.8466665,81.9827786 48.9033334,81.8216667 C48.9600004,81.6605547 48.9883334,81.4877787 48.9883334,81.3033333 L48.9883334,78.2533333 L49.7216668,78.2533333 L49.7216668,81.3033333 C49.7216668,81.547779 49.6800005,81.7794433 49.5966668,81.9983333 C49.513333,82.2172233 49.3833343,82.4088881 49.2066668,82.5733333 C49.0299992,82.7377786 48.8022237,82.8677773 48.5233334,82.9633333 C48.2444432,83.0588894 47.9105576,83.1066667 47.5216668,83.1066667 C47.1727761,83.1066667 46.865557,83.0588894 46.6000001,82.9633333 C46.3344432,82.8677773 46.1116677,82.737223 45.9316668,82.5716667 C45.7516659,82.4061103 45.6155561,82.2133344 45.5233334,81.9933333 C45.4311108,81.7733322 45.3850001,81.5400012 45.3850001,81.2933333 L45.3850001,78.2533333 Z M56.6983334,78.2533333 L58.3516667,78.2533333 C58.6183347,78.2533333 58.8677767,78.2816664 59.1000001,78.3383333 C59.3322234,78.3950003 59.5338881,78.4788883 59.7050001,78.59 C59.876112,78.7011117 60.0111107,78.8399992 60.1100001,79.0066667 C60.2088894,79.1733342 60.2583334,79.3677767 60.2583334,79.59 C60.2583334,79.8144456 60.209445,80.0099992 60.1116667,80.1766667 C60.0138885,80.3433342 59.8855564,80.4822217 59.7266667,80.5933333 C59.567777,80.704445 59.3861122,80.7877775 59.1816667,80.8433333 C58.9772213,80.8988892 58.7683345,80.9266667 58.5550001,80.9266667 L57.8683334,80.9266667 L57.8683334,83 L56.6983334,83 L56.6983334,78.2533333 Z M57.8683334,80.4966667 L58.2483334,80.4966667 C58.3794452,80.4966667 58.494444,80.472778 58.5933334,80.425 C58.6922228,80.377222 58.7744442,80.3122226 58.8400001,80.23 C58.9055559,80.1477774 58.9544443,80.0527783 58.9866667,79.945 C59.0188891,79.8372217 59.0350001,79.724445 59.0350001,79.6066667 C59.0350001,79.4644437 59.0138892,79.3377783 58.9716667,79.2266667 C58.9294443,79.115555 58.8711115,79.0222226 58.7966667,78.9466667 C58.7222219,78.8711107 58.6350006,78.8133335 58.5350001,78.7733333 C58.4349996,78.7333331 58.328334,78.7133333 58.2150001,78.7133333 L57.8683334,78.7133333 L57.8683334,80.4966667 Z M77.0016666,78.15 L79.2249999,83 L78.0349999,83 L77.4416666,81.7033333 L75.5983333,81.7033333 L74.9749999,83 L74.1816666,83 L76.4983333,78.15 L77.0016666,78.15 Z M75.8149999,81.26 L77.2449999,81.26 L76.5416666,79.7266667 L75.8149999,81.26 Z M85.6216666,78.2533333 L87.4049999,78.2533333 C87.7116681,78.2533333 87.9805543,78.2855552 88.2116666,78.35 C88.4427788,78.4144448 88.6349991,78.5044439 88.7883332,78.62 C88.9416673,78.7355561 89.0566662,78.8722214 89.1333332,79.03 C89.2100003,79.1877786 89.2483332,79.3599991 89.2483332,79.5466667 C89.2483332,79.6800007 89.2222224,79.8072216 89.1699999,79.9283333 C89.1177774,80.049445 89.0438893,80.160555 88.9483332,80.2616667 C88.8527772,80.3627783 88.7383339,80.4527774 88.6049999,80.5316667 C88.4716659,80.6105559 88.3238896,80.6755553 88.1616666,80.7266667 L89.8516666,83 L88.5883332,83 L86.9916666,80.85 L86.7849999,80.85 L86.7849999,83 L85.6216666,83 L85.6216666,78.2533333 Z M86.7849999,80.44 L87.0383332,80.44 C87.1805562,80.44 87.3122215,80.4200002 87.4333332,80.38 C87.5544449,80.3399998 87.6594439,80.2827781 87.7483332,80.2083333 C87.8372226,80.1338885 87.9072219,80.0427783 87.9583332,79.935 C88.0094446,79.8272217 88.0349999,79.7055562 88.0349999,79.57 C88.0349999,79.4455549 88.0155556,79.3311116 87.9766666,79.2266667 C87.9377775,79.1222217 87.8838891,79.031667 87.8149999,78.955 C87.7461107,78.8783329 87.6644448,78.8188891 87.5699999,78.7766667 C87.475555,78.7344442 87.3716671,78.7133333 87.2583332,78.7133333 L86.7849999,78.7133333 L86.7849999,80.44 Z M100.301666,78.2533333 L100.301666,78.6566667 L98.6583332,78.6566667 L98.6583332,83 L97.4949998,83 L97.4949998,78.6566667 L95.8516665,78.6566667 L95.8516665,78.2533333 L100.301666,78.2533333 Z M106.995,78.2533333 L108.158333,78.2533333 L108.158333,83 L106.995,83 L106.995,78.2533333 Z M116.815,83.0733333 C116.530554,83.0733333 116.281667,83.0400003 116.068333,82.9733333 C115.854999,82.9066663 115.673334,82.814445 115.523333,82.6966667 C115.373332,82.5788883 115.254445,82.4388897 115.166666,82.2766667 C115.078888,82.1144436 115.018333,81.9366676 114.985,81.7433333 L115.791666,81.7433333 C115.820555,81.8611117 115.861666,81.9716661 115.915,82.075 C115.968333,82.1783338 116.03611,82.2677774 116.118333,82.3433333 C116.200556,82.4188893 116.298332,82.4783331 116.411666,82.5216667 C116.525,82.5650002 116.65611,82.5866667 116.805,82.5866667 C116.905,82.5866667 117.003333,82.5761112 117.1,82.555 C117.196667,82.5338888 117.283333,82.5000002 117.36,82.4533333 C117.436667,82.4066664 117.498333,82.3450004 117.545,82.2683333 C117.591667,82.1916663 117.615,82.0977783 117.615,81.9866667 C117.615,81.8444437 117.578889,81.7188894 117.506666,81.61 C117.434444,81.5011106 117.338889,81.4016671 117.22,81.3116667 C117.10111,81.2216662 116.965556,81.1377782 116.813333,81.06 C116.66111,80.9822218 116.506112,80.9038893 116.348333,80.825 C116.190554,80.7461107 116.035556,80.6638893 115.883333,80.5783333 C115.73111,80.4927773 115.595556,80.3966672 115.476666,80.29 C115.357777,80.1833328 115.262222,80.063334 115.19,79.93 C115.117777,79.796666 115.081666,79.6433342 115.081666,79.47 C115.081666,79.2811102 115.122777,79.1061119 115.205,78.945 C115.287222,78.7838881 115.406666,78.644445 115.563333,78.5266667 C115.72,78.4088883 115.911665,78.316667 116.138333,78.25 C116.365001,78.183333 116.622776,78.15 116.911666,78.15 C117.151668,78.15 117.368332,78.183333 117.561666,78.25 C117.755001,78.316667 117.925555,78.4072216 118.073333,78.5216667 C118.221112,78.6361117 118.345555,78.7711103 118.446666,78.9266667 C118.547778,79.082223 118.624999,79.2499991 118.678333,79.43 L117.945,79.43 C117.902777,79.3166661 117.853889,79.2088894 117.798333,79.1066667 C117.742777,79.0044439 117.673889,78.9144448 117.591666,78.8366667 C117.509444,78.7588885 117.410556,78.6972224 117.295,78.6516667 C117.179444,78.6061109 117.040556,78.5833333 116.878333,78.5833333 C116.727221,78.5833333 116.599445,78.6033331 116.495,78.6433333 C116.390555,78.6833335 116.306111,78.7338886 116.241666,78.795 C116.177222,78.8561114 116.131111,78.9244441 116.103333,79 C116.075555,79.0755559 116.061666,79.1499996 116.061666,79.2233333 C116.061666,79.3500006 116.098888,79.4649995 116.173333,79.5683333 C116.247778,79.6716672 116.346666,79.7672218 116.47,79.855 C116.593334,79.9427782 116.732777,80.0272218 116.888333,80.1083333 C117.043889,80.1894448 117.203332,80.2711107 117.366666,80.3533333 C117.530001,80.435556 117.689999,80.5211107 117.846666,80.61 C118.003334,80.6988893 118.143332,80.7972217 118.266666,80.905 C118.39,81.0127783 118.488888,81.1322216 118.563333,81.2633333 C118.637778,81.3944451 118.675,81.5422214 118.675,81.7066667 C118.675,81.900001 118.635,82.0794436 118.555,82.245 C118.474999,82.4105564 118.356667,82.5549994 118.2,82.6783333 C118.043332,82.8016673 117.84889,82.898333 117.616666,82.9683333 C117.384443,83.0383337 117.117223,83.0733333 116.815,83.0733333 L116.815,83.0733333 Z M129.571666,78.2533333 L129.571666,78.6566667 L127.928333,78.6566667 L127.928333,83 L126.765,83 L126.765,78.6566667 L125.121666,78.6566667 L125.121666,78.2533333 L129.571666,78.2533333 Z" id="MAKEUP-ARTIST" fill="#7F0000"></path>
            <path d="M1.61388903,57.6527778 L7.73888903,57.6527778 C8.74815334,57.6527778 9.69490313,57.7754617 10.5791668,58.0208333 C11.4634305,58.2662049 12.2319413,58.6249976 12.8847224,59.0972222 C13.5375034,59.5694468 14.0537019,60.1481447 14.4333335,60.8333333 C14.812965,61.5185219 15.0027779,62.3009215 15.0027779,63.1805556 C15.0027779,64.0601896 14.8199094,64.8263856 14.4541668,65.4791667 C14.0884242,66.1319477 13.6069476,66.673609 13.0097224,67.1041667 C12.4124972,67.5347244 11.7319484,67.8541656 10.9680557,68.0625 C10.204163,68.2708344 9.42870778,68.375 8.64166681,68.375 C8.30833181,68.375 7.95648348,68.3657408 7.58611125,68.3472222 C7.21573903,68.3287036 6.85926112,68.3032409 6.51666681,68.2708333 C6.1740725,68.2384258 5.85694605,68.2037039 5.56527792,68.1666667 C5.2736098,68.1296294 5.03981584,68.0879632 4.86388903,68.0416667 L4.86388903,77 L1.61388903,77 L1.61388903,57.6527778 Z M4.86388903,66.9583333 C5.22500195,67.0601857 5.61620174,67.1574069 6.03750014,67.25 C6.45879855,67.3425931 6.887035,67.3888889 7.32222237,67.3888889 C8.02592959,67.3888889 8.63934938,67.2847233 9.16250014,67.0763889 C9.68565091,66.8680545 10.1208317,66.5810203 10.4680557,66.2152778 C10.8152797,65.8495352 11.0745363,65.4236135 11.2458335,64.9375 C11.4171306,64.4513865 11.5027779,63.9305583 11.5027779,63.375 C11.5027779,62.7268486 11.3893531,62.1365767 11.1625001,61.6041667 C10.9356472,61.0717566 10.6277799,60.6203722 10.238889,60.25 C9.8499982,59.8796278 9.39166945,59.5925936 8.86388903,59.3888889 C8.33610862,59.1851842 7.77129945,59.0833333 7.16944459,59.0833333 L4.86388903,59.0833333 L4.86388903,66.9583333 Z M27.413889,57.2083333 L36.5250001,77 L33.2194445,77 L30.2611112,70.5416667 L21.9694445,70.5416667 L18.913889,77 L17.288889,77 L26.6083334,57.2083333 L27.413889,57.2083333 Z M22.538889,69.2916667 L29.663889,69.2916667 L26.1500001,61.6388889 L22.538889,69.2916667 Z M40.825,57.6527778 L47.5194445,57.6527778 C48.686117,57.6527778 49.7069401,57.7777765 50.5819445,58.0277778 C51.4569489,58.277779 52.1861082,58.6273126 52.7694445,59.0763889 C53.3527807,59.5254652 53.7925912,60.0578673 54.0888889,60.6736111 C54.3851867,61.2893549 54.5333334,61.9629593 54.5333334,62.6944444 C54.5333334,63.2962993 54.4199086,63.8587937 54.1930556,64.3819444 C53.9662026,64.9050952 53.6444466,65.3773127 53.2277778,65.7986111 C52.8111091,66.2199095 52.3111141,66.5856466 51.7277778,66.8958333 C51.1444416,67.2060201 50.5009295,67.4444436 49.7972223,67.6111111 L56.8388889,77 L53.075,77 L46.3527778,67.9027778 L44.075,67.9027778 L44.075,77 L40.825,77 L40.825,57.6527778 Z M44.075,66.9305556 L45.95,66.9305556 C46.6814852,66.9305556 47.3550896,66.8333343 47.9708334,66.6388889 C48.5865772,66.4444435 49.1212941,66.1689833 49.575,65.8125 C50.028706,65.4560167 50.3828691,65.0231507 50.6375,64.5138889 C50.892131,64.0046271 51.0194445,63.4351883 51.0194445,62.8055556 C51.0194445,62.2314786 50.9175937,61.7013913 50.7138889,61.2152778 C50.5101842,60.7291642 50.2277796,60.3125017 49.8666667,59.9652778 C49.5055538,59.6180538 49.0750025,59.3472232 48.575,59.1527778 C48.0749975,58.9583324 47.5287067,58.8611111 46.9361112,58.8611111 L44.075,58.8611111 L44.075,66.9305556 Z M68.8333333,57.2083333 L77.9444444,77 L74.6388889,77 L71.6805556,70.5416667 L63.3888889,70.5416667 L60.3333333,77 L58.7083333,77 L68.0277778,57.2083333 L68.8333333,57.2083333 Z M63.9583333,69.2916667 L71.0833333,69.2916667 L67.5694444,61.6388889 L63.9583333,69.2916667 Z M82.2444444,57.6527778 L85.4944444,57.6527778 L85.4944444,77 L82.2444444,77 L82.2444444,57.6527778 Z M92.1555555,57.6527778 L99.9472221,57.6527778 C100.975005,57.6527778 101.91944,57.7685174 102.780555,58 C103.641671,58.2314826 104.380089,58.5555535 104.995833,58.9722222 C105.611577,59.388891 106.090739,59.888886 106.433333,60.4722222 C106.775928,61.0555585 106.947222,61.6990706 106.947222,62.4027778 C106.947222,62.9305582 106.891667,63.4027757 106.780555,63.8194444 C106.669444,64.2361132 106.479631,64.6226834 106.211111,64.9791667 C105.942591,65.3356499 105.581484,65.6736095 105.127778,65.9930556 C104.674072,66.3125016 104.104633,66.6342576 103.419444,66.9583333 L103.419444,67.0138889 C104.104633,67.1250006 104.727312,67.3124987 105.2875,67.5763889 C105.847688,67.8402791 106.324535,68.1759239 106.718055,68.5833333 C107.111576,68.9907428 107.414814,69.4606455 107.627778,69.9930556 C107.840742,70.5254656 107.947222,71.1157375 107.947222,71.7638889 C107.947222,72.495374 107.787502,73.1805524 107.468055,73.8194444 C107.148609,74.4583365 106.69491,75.0138865 106.106944,75.4861111 C105.518978,75.9583357 104.808337,76.3287024 103.975,76.5972222 C103.141662,76.8657421 102.211116,77 101.183333,77 L92.1555555,77 L92.1555555,57.6527778 Z M95.4055555,66.3611111 L99.5444443,66.3611111 C100.192596,66.3611111 100.771294,66.2685194 101.280555,66.0833333 C101.789817,65.8981472 102.218054,65.6412053 102.565278,65.3125 C102.912502,64.9837947 103.176388,64.5972244 103.356944,64.1527778 C103.537501,63.7083311 103.627778,63.2222249 103.627778,62.6944444 C103.627778,62.1296268 103.521297,61.6157431 103.308333,61.1527778 C103.095369,60.6898125 102.762039,60.2939831 102.308333,59.9652778 C101.854627,59.6365724 101.280559,59.3842601 100.586111,59.2083333 C99.8916631,59.0324065 99.0583381,58.9444444 98.086111,58.9444444 L95.4055555,58.9444444 L95.4055555,66.3611111 Z M95.4055555,75.5833333 L98.9194443,75.5833333 C99.8638935,75.5833333 100.68333,75.4930565 101.377778,75.3125 C102.072226,75.1319435 102.646294,74.8796312 103.1,74.5555556 C103.553706,74.2314799 103.889351,73.8402801 104.106944,73.3819444 C104.324538,72.9236088 104.433333,72.421299 104.433333,71.875 C104.433333,71.2638858 104.336112,70.6944471 104.141667,70.1666667 C103.947221,69.6388862 103.62778,69.1828723 103.183333,68.7986111 C102.738887,68.4143499 102.160189,68.1111122 101.447222,67.8888889 C100.734256,67.6666656 99.8592643,67.5555556 98.8222221,67.5555556 L95.4055555,67.5555556 L95.4055555,75.5833333 Z M120.636111,57.2083333 L129.747222,77 L126.441667,77 L123.483333,70.5416667 L115.191667,70.5416667 L112.136111,77 L110.511111,77 L119.830555,57.2083333 L120.636111,57.2083333 Z M115.761111,69.2916667 L122.886111,69.2916667 L119.372222,61.6388889 L115.761111,69.2916667 Z" id="PARAIBA" fill="#000000"></path>
            <path d="M1.5,54.65 L125.5,54.65" id="Line" stroke="#000000" stroke-width="1.3" stroke-linecap="square"></path>
            <path d="M52.1155553,46.9016667 C52.1155553,47.5490773 52.0559262,48.1879598 51.9366664,48.8183333 C51.8174065,49.4487069 51.5788904,50.0130531 51.2211108,50.5113889 C50.8633313,51.0097247 50.3522253,51.4122207 49.6877775,51.7188889 C49.0233297,52.0255571 48.1459311,52.1788889 47.0555553,52.1788889 C46.4422189,52.1788889 45.8863911,52.1213895 45.3880553,52.0063889 C44.8897194,51.8913883 44.4382425,51.7423157 44.0336108,51.5591667 C43.6289792,51.3760176 43.2648161,51.167316 42.9411108,50.9330556 C42.6174055,50.6987951 42.3150011,50.4666678 42.0338886,50.2366667 L42.9794442,48.9716667 C43.1753711,49.1335193 43.4117576,49.3337025 43.6886108,49.5722222 C43.9654641,49.8107419 44.2678684,50.0407396 44.595833,50.2622222 C44.9237977,50.4837048 45.264535,50.67324 45.6180553,50.8308333 C45.9715756,50.9884267 46.3272201,51.0672222 46.6849997,51.0672222 C47.4687073,51.0672222 48.0713865,50.8606502 48.4930553,50.4475 C48.914724,50.0343498 49.1255553,49.478522 49.1255553,48.78 L49.1255553,34.2005556 L52.1155553,34.2005556 L52.1155553,46.9016667 Z M69.0305555,33.7916667 L77.4127777,52 L74.3716666,52 L71.6499999,46.0583333 L64.0216666,46.0583333 L61.2105555,52 L59.7155555,52 L68.2894443,33.7916667 L69.0305555,33.7916667 Z M64.5455555,44.9083333 L71.1005555,44.9083333 L67.8677777,37.8677778 L64.5455555,44.9083333 Z M85.0127779,34.2005556 L86.6866668,34.2005556 L98.3527779,47.2083333 L98.4677779,47.2083333 L98.4677779,34.2005556 L99.783889,34.2005556 L99.783889,52.4216667 L99.093889,52.4216667 L86.4566668,37.9444444 L86.3544445,37.9444444 L86.3544445,52 L85.0127779,52 L85.0127779,34.2005556 Z M116.698889,33.7916667 L125.081111,52 L122.04,52 L119.318334,46.0583333 L111.69,46.0583333 L108.878889,52 L107.383889,52 L115.957778,33.7916667 L116.698889,33.7916667 Z M112.213889,44.9083333 L118.768889,44.9083333 L115.536111,37.8677778 L112.213889,44.9083333 Z" id="JANA" fill="#000000"></path>
            <g id="logo" transform="translate(5.000000, 0.000000)">
                <path d="M30.5270377,0.197768052 C30.5270377,0.197768052 32.6119729,2.83972239 29.6303126,6.22949248 C25.2748617,11.2768388 9.75467097,11.3898795 4.79716542,15.8727898 C1.70367822,18.6701292 -2.22538011,24.075183 3.21884395,33.7662504 C4.79716557,34.4976561 -3.21892254,30.6897089 13.2056948,23.7486344 C-2.32912633,44.6202377 31.8612379,61.3202262 36.7447272,43.3906876 C28.4985189,53.0823633 10.9544794,39.4855642 26.6362803,23.1680933 C20.2740854,34.1007988 23.470006,39.2835967 23.3928045,39.1589607 C23.5056375,38.9310081 23.8536019,36.210703 31.0731075,38.559842 C33.8173675,39.7397739 36.2359892,38.3863898 35.8999647,35.1700441 C35.8118758,35.0900967 36.2092656,35.3090296 38.0343881,33.7662496 C39.3492885,31.7790445 37.0842161,32.3522063 37.0842158,32.3522055 C37.0842156,32.3522046 37.969558,31.92705 38.618843,30.8446844 C39.268128,29.7623187 36.6610917,32.2214197 37.6399676,27.9850271 C37.575633,27.9034397 39.1236318,27.9533781 40.2623548,26.137137 C41.4010779,24.3208959 36.8536,28.5962756 35.5891792,21.715059 C35.6728142,21.7138291 36.5119192,22.2280929 37.3998368,20.4991824 C39.4328105,14.8266066 37.2226756,21.5583348 35.7213125,19.4245046 C35.2280595,17.609587 35.2871721,17.5651358 35.5891792,16.4795701 C42.4759484,7.10399413 30.5270377,0.197768052 30.5270377,0.197768052 Z" id="Path-2" fill="#7F0000" transform="translate(20.475365, 25.598884) scale(-1, 1) translate(-20.475365, -25.598884) "></path>
                <path d="M16.5800047,16.0049645 C17.6890549,15.6222129 19.9929503,17.1113869 19.9929503,17.1113869 C19.9929503,17.1113869 17.3804655,12.9247285 21.1216114,12.7167478 C24.8627574,12.508767 23.2442967,16.4393814 23.2442967,16.4393814 C23.2442967,16.4393814 27.3150707,14.3325298 27.3150707,16.665147 C27.3150706,18.9977643 24.0143132,18.8969341 24.0143132,18.8969341 C24.0143132,18.8969341 27.4218517,19.8930369 26.7932701,22.3450039 C26.1646885,24.7969709 22.7646116,22.4762595 21.7848469,20.1561358 C21.5061222,21.9337459 21.7573227,23.6565316 18.8916477,23.6565315 C16.0259728,23.6565314 17.5273723,20.1048386 19.5268616,19.3662502 C17.4918891,18.9973233 16.2775988,19.2973929 15.6717344,18.2581031 C15.350306,17.4794857 15.4182578,16.4059028 16.5800047,16.0049645 Z" id="Path-3" fill="#FFFFFF"></path>
            </g>
        </g>
    </g>
</svg>